<svg width="68" height="68" viewBox="0 0 68 68" fill="none" xmlns="http://www.w3.org/2000/svg">
<rect width="68" height="68" rx="16" fill="#A5B4FC" fill-opacity="0.41"/>
<path d="M8 34C8 25.1634 15.1634 18 24 18H45C53.8366 18 61 25.1634 61 34V50H24C15.1634 50 8 42.8366 8 34Z" fill="#4845D2"/>
<path d="M45 24H24C18.4772 24 14 28.4772 14 34C14 39.5228 18.4772 44 24 44H45C50.5228 44 55 39.5228 55 34C55 28.4772 50.5228 24 45 24Z" fill="#A5B4FC"/>
<path d="M24 39C26.7614 39 29 36.7614 29 34C29 31.2386 26.7614 29 24 29C21.2386 29 19 31.2386 19 34C19 36.7614 21.2386 39 24 39Z" fill="black"/>
<path d="M22 33C22.5523 33 23 32.5523 23 32C23 31.4477 22.5523 31 22 31C21.4477 31 21 31.4477 21 32C21 32.5523 21.4477 33 22 33Z" fill="white"/>
<path d="M46 39C48.7614 39 51 36.7614 51 34C51 31.2386 48.7614 29 46 29C43.2386 29 41 31.2386 41 34C41 36.7614 43.2386 39 46 39Z" fill="black"/>
<path d="M44 33C44.5523 33 45 32.5523 45 32C45 31.4477 44.5523 31 44 31C43.4477 31 43 31.4477 43 32C43 32.5523 43.4477 33 44 33Z" fill="white"/>
</svg>
