<svg width="170" height="40" viewBox="0 0 170 40" fill="none" xmlns="http://www.w3.org/2000/svg">
<path d="M0 20C0 11.1634 7.16344 4 16 4H37C45.8366 4 53 11.1634 53 20V36H16C7.16344 36 0 28.8366 0 20Z" fill="#4845D2"/>
<path d="M37 10H16C10.4772 10 6 14.4772 6 20C6 25.5228 10.4772 30 16 30H37C42.5228 30 47 25.5228 47 20C47 14.4772 42.5228 10 37 10Z" fill="#A5B4FC"/>
<path d="M16 25C18.7614 25 21 22.7614 21 20C21 17.2386 18.7614 15 16 15C13.2386 15 11 17.2386 11 20C11 22.7614 13.2386 25 16 25Z" fill="black"/>
<path d="M14 19C14.5523 19 15 18.5523 15 18C15 17.4477 14.5523 17 14 17C13.4477 17 13 17.4477 13 18C13 18.5523 13.4477 19 14 19Z" fill="white"/>
<path d="M38 25C40.7614 25 43 22.7614 43 20C43 17.2386 40.7614 15 38 15C35.2386 15 33 17.2386 33 20C33 22.7614 35.2386 25 38 25Z" fill="black"/>
<path d="M36 19C36.5523 19 37 18.5523 37 18C37 17.4477 36.5523 17 36 17C35.4477 17 35 17.4477 35 18C35 18.5523 35.4477 19 36 19Z" fill="white"/>
<path d="M69.264 32.352C67.408 32.352 65.7653 31.9573 64.336 31.168C62.928 30.3787 61.8187 29.2907 61.008 27.904C60.2187 26.496 59.824 24.896 59.824 23.104V9.408H64.88V23.392C64.88 24.288 65.072 25.0667 65.456 25.728C65.84 26.3893 66.3627 26.9013 67.024 27.264C67.7067 27.6053 68.4533 27.776 69.264 27.776C70.1173 27.776 70.864 27.6053 71.504 27.264C72.144 26.9013 72.6453 26.4 73.008 25.76C73.392 25.0987 73.584 24.32 73.584 23.424V9.408H78.64V23.136C78.64 24.928 78.2453 26.5173 77.456 27.904C76.6667 29.2907 75.568 30.3787 74.16 31.168C72.752 31.9573 71.12 32.352 69.264 32.352ZM93.3008 32.352C91.6581 32.352 90.1114 32.0533 88.6608 31.456C87.2314 30.8587 85.9834 30.0373 84.9168 28.992C83.8501 27.9253 83.0074 26.688 82.3888 25.28C81.7914 23.8507 81.4928 22.3147 81.4928 20.672C81.4928 19.0293 81.8021 17.504 82.4208 16.096C83.0394 14.688 83.8928 13.4613 84.9808 12.416C86.0901 11.3493 87.3808 10.528 88.8528 9.952C90.3248 9.35467 91.9034 9.056 93.5888 9.056C95.5301 9.056 97.2901 9.408 98.8688 10.112C100.469 10.816 101.791 11.7867 102.837 13.024L99.4128 16.448C98.6874 15.5093 97.8341 14.8053 96.8528 14.336C95.8714 13.8667 94.7621 13.632 93.5248 13.632C92.2021 13.632 91.0181 13.9307 89.9728 14.528C88.9274 15.104 88.1061 15.9253 87.5088 16.992C86.9328 18.0373 86.6448 19.264 86.6448 20.672C86.6448 22.08 86.9328 23.3173 87.5088 24.384C88.0848 25.4507 88.8741 26.2827 89.8767 26.88C90.8794 27.4773 92.0314 27.776 93.3328 27.776C94.6554 27.776 95.7754 27.5307 96.6928 27.04C97.6314 26.528 98.3461 25.8027 98.8368 24.864C99.3488 23.904 99.6048 22.7413 99.6048 21.376L102.933 23.616L92.8528 23.456V19.2H104.725V19.936C104.725 22.6453 104.234 24.928 103.253 26.784C102.293 28.6187 100.949 30.0053 99.2208 30.944C97.5141 31.8827 95.5408 32.352 93.3008 32.352ZM118.802 32.352C117.117 32.352 115.549 32.064 114.098 31.488C112.669 30.8907 111.41 30.0587 110.322 28.992C109.256 27.9253 108.424 26.688 107.826 25.28C107.229 23.8507 106.93 22.3147 106.93 20.672C106.93 19.0293 107.229 17.504 107.826 16.096C108.424 14.6667 109.256 13.4293 110.322 12.384C111.389 11.3387 112.637 10.528 114.066 9.952C115.517 9.35467 117.085 9.056 118.77 9.056C120.562 9.056 122.152 9.344 123.538 9.92C124.946 10.496 126.173 11.2853 127.218 12.288L123.858 15.68C123.261 15.04 122.536 14.5387 121.682 14.176C120.85 13.8133 119.88 13.632 118.77 13.632C117.789 13.632 116.882 13.8027 116.05 14.144C115.24 14.464 114.536 14.9333 113.938 15.552C113.362 16.1707 112.904 16.9173 112.562 17.792C112.242 18.6667 112.082 19.6267 112.082 20.672C112.082 21.7387 112.242 22.7093 112.562 23.584C112.904 24.4587 113.362 25.2053 113.938 25.824C114.536 26.4427 115.24 26.9227 116.05 27.264C116.882 27.6053 117.789 27.776 118.77 27.776C119.922 27.776 120.925 27.5947 121.778 27.232C122.632 26.8693 123.368 26.368 123.986 25.728L127.378 29.12C126.29 30.1227 125.042 30.912 123.634 31.488C122.248 32.064 120.637 32.352 118.802 32.352ZM132.769 32.352C131.937 32.352 131.243 32.064 130.689 31.488C130.134 30.912 129.857 30.2187 129.857 29.408C129.857 28.5547 130.134 27.8507 130.689 27.296C131.243 26.72 131.937 26.432 132.769 26.432C133.622 26.432 134.315 26.72 134.849 27.296C135.403 27.8507 135.681 28.5547 135.681 29.408C135.681 30.2187 135.403 30.912 134.849 31.488C134.315 32.064 133.622 32.352 132.769 32.352Z" fill="white"/>
<path d="M138.043 32L147.003 9.408H151.547L160.411 32H155.099L148.315 13.248H150.139L143.259 32H138.043ZM143.131 27.904V23.808H155.451V27.904H143.131ZM162.801 32V9.408H167.825V32H162.801Z" fill="url(#paint0_linear_9843_4741)"/>
<defs>
<linearGradient id="paint0_linear_9843_4741" x1="114" y1="0" x2="114" y2="40" gradientUnits="userSpaceOnUse">
<stop stop-color="#A5B4FC"/>
<stop offset="1" stop-color="#4845D2"/>
</linearGradient>
</defs>
</svg>
